<svg id="Group_13" data-name="Group 13" xmlns="http://www.w3.org/2000/svg" width="40" height="40" viewBox="0 0 40 40">
  <rect id="Rectangle" width="40" height="40" fill="#f16718"/>
  <g id="TM_2" data-name="TM 2" transform="translate(4.432 5.2)">
    <path id="TM" d="M16.435,11a.268.268,0,0,1-.288-.3V5.154c0-.126-.091-.141-.152-.047l-.941,1.618a.37.37,0,0,1-.349.2H13.643a.37.37,0,0,1-.349-.2l-.941-1.618c-.061-.095-.152-.079-.152.047V10.7a.268.268,0,0,1-.288.3H9.636a.268.268,0,0,1-.288-.3V.3A.268.268,0,0,1,9.636,0H11.9a.372.372,0,0,1,.349.2l1.836,3.1a.094.094,0,0,0,.182,0L16.1.2A.372.372,0,0,1,16.45,0h2.262A.268.268,0,0,1,19,.3V10.7a.268.268,0,0,1-.288.3ZM3.065,11a.268.268,0,0,1-.288-.3V2.671a.114.114,0,0,0-.122-.125H.288A.269.269,0,0,1,0,2.247V.3A.268.268,0,0,1,.288,0H8.194a.268.268,0,0,1,.289.3V2.247a.269.269,0,0,1-.289.3H5.752a.113.113,0,0,0-.122.125V10.7a.268.268,0,0,1-.289.3Z" transform="translate(0.568 0.8)" fill="#fff"/>
  </g>
</svg>
